# 3ds Max Wavefront OBJ Exporter v0.97b - (c)2007 guruware
# File Created: 28.02.2016 14:42:06

mtllib Cristal.mtl

#
# object Cristal
#

v  -0.2422 2.1167 -0.9337
v  -1.7220 1.7990 1.2527
v  -3.8666 18.0257 0.4708
v  -1.3635 22.1115 1.6438
v  -0.0106 23.3896 -0.0798
v  -2.8995 22.2222 -0.2271
v  -0.6300 16.5644 -3.1552
v  2.5603 15.4507 -0.5191
v  1.1282 3.2590 -1.3713
v  0.0373 0.0002 -0.0000
v  1.1586 3.0280 0.8153
v  -0.8058 17.8906 3.3943
v  0.2321 21.5545 -1.8122
# 13 vertices

vn -0.4454 -0.3050 -0.8418
vn -0.7060 -0.5194 0.4815
vn -0.9971 0.0520 0.0548
vn -0.1397 0.5819 0.8011
vn 0.3968 0.9179 -0.0007
vn -0.7758 0.6039 -0.1827
vn -0.0889 0.0226 -0.9958
vn 0.9945 0.0676 -0.0801
vn 0.6179 -0.2781 -0.7354
vn 0.0916 -0.9944 -0.0520
vn 0.7730 -0.2585 0.5793
vn 0.0770 0.1527 0.9853
vn 0.3914 0.4737 -0.7889
# 13 vertex normals

vt 0.6324 0.1869 0.0000
vt 0.5252 0.4496 0.0000
vt 0.6325 0.7806 0.0000
vt 0.6326 0.7806 0.0000
vt 0.6324 0.1868 0.0000
# 5 texture coords

g Cristal
usemtl Material__25
s 1
f 1/1/1 2/2/2 3/3/3 
f 4/2/4 5/3/5 6/1/6 
f 7/1/7 8/2/8 9/4/9 
f 10/2/10 1/3/1 9/1/9 
f 9/1/9 1/2/1 7/3/7 
f 11/2/11 8/4/8 12/1/12 
f 3/5/3 2/2/2 12/3/12 
f 1/2/1 3/4/3 7/1/7 
f 9/1/9 8/2/8 11/3/11 
f 11/2/11 12/3/12 2/1/2 
f 3/1/3 4/2/4 6/4/6 
f 6/2/6 13/4/13 7/1/7 
f 8/1/8 13/2/13 5/4/5 
f 5/2/5 4/3/4 12/5/12 
f 6/1/6 5/2/5 13/3/13 
f 7/2/7 13/3/13 8/1/8 
f 12/1/12 8/2/8 5/3/5 
f 3/2/3 6/3/6 7/1/7 
f 3/1/3 12/2/12 4/3/4 
f 11/2/11 10/4/10 9/1/9 
f 10/5/10 2/2/2 1/3/1 
f 11/2/11 2/3/2 10/1/10 
# 0 polygons - 22 triangles

